<svg width="42" height="44" viewBox="0 0 42 44" fill="none" xmlns="http://www.w3.org/2000/svg">
    <path d="M40.3108 7.18648C37.8836 3.54564 29.3883 2.33203 20.893 2.33203C12.3977 2.33203 2.68883 3.54564 1.47521 5.97287C-0.839143 10.6016 0.261603 30.2451 0.261603 31.4587C0.261603 32.6723 6.32966 32.6723 6.32966 32.6723V16.8954L7.54327 14.4681V42.3812C7.54327 42.3812 11.1841 43.5948 20.893 43.5948C30.6019 43.5948 34.2427 42.3812 34.2427 42.3812V14.4681L35.4563 16.8954V32.6723C35.4563 32.6723 41.5244 32.6723 41.5244 31.4587C41.5244 30.2451 43.181 11.4924 40.3108 7.18648Z" fill="#E1E8ED"/>
    <path d="M7.5432 32.6729H6.32959V16.896C6.32959 15.6824 7.5432 14.4688 7.5432 14.4688V32.6729ZM35.4563 32.6729H34.2427V14.4688C34.2427 14.4688 35.4563 15.6824 35.4563 16.896V32.6729Z" fill="#99AAB5"/>
    <path d="M13.3455 2.33244L20.9682 16.0997L28.1746 2.33244L20.7606 0.81543L13.3455 2.33244Z" fill="#66757F"/>
    <path d="M13.6113 0.663845C13.6113 0.663845 16.342 0 20.893 0C25.444 0 28.1747 0.663845 28.1747 0.663845V3.54617C28.1747 3.54617 26.2025 2.33256 20.893 2.33256C15.5834 2.33256 13.6113 3.54617 13.6113 3.54617V0.663845Z" fill="#CCD6DD"/>
    <path d="M7.54321 42.382C7.54321 42.382 29.0824 3.96023 29.0824 2.77211C29.0824 1.55849 28.1746 0.664062 28.1746 0.664062L7.54321 38.7411V42.382Z" fill="#99AAB5"/>
    <path d="M20.672 17.7723C20.672 17.7723 12.5505 3.96023 12.5505 2.77211C12.5505 1.55849 13.6112 0.664062 13.6112 0.664062L21.8165 15.9228L20.672 17.7723Z" fill="#99AAB5"/>
    <path d="M7.54321 26.6045C7.54321 26.6045 13.6113 29.0317 20.8929 29.0317C28.1746 29.0317 34.2427 26.6045 34.2427 26.6045V30.2453C34.2427 30.2453 29.3882 32.6725 20.8929 32.6725C12.3977 32.6725 7.54321 30.2453 7.54321 30.2453V26.6045Z" fill="#292F33"/>
    <path d="M24.5339 29.032C24.5339 29.032 22.1066 27.8184 20.893 27.8184C19.6794 27.8184 17.2522 29.032 17.2522 29.032C17.2522 29.032 16.0386 29.032 16.0386 30.2456C16.0386 31.4592 17.2522 32.6728 17.2522 32.6728C17.2522 32.6728 19.6794 33.8864 20.893 33.8864C22.1066 33.8864 24.5339 32.6728 24.5339 32.6728C24.5339 32.6728 25.7475 31.4592 25.7475 30.2456C25.7475 29.032 24.5339 29.032 24.5339 29.032Z" fill="#292F33"/>
    <path d="M13.6113 39.9547L17.2522 41.1683C17.2522 41.1683 18.4658 35.1003 20.893 32.6731L18.4658 29.0322C18.4658 29.0322 14.8249 33.8867 13.6113 39.9547ZM28.1747 39.9547L24.5338 41.1683C24.5338 41.1683 23.3202 35.1003 20.893 32.6731L23.3202 29.0322C23.3202 29.0322 26.9611 33.8867 28.1747 39.9547Z" fill="#292F33"/>
</svg>
