<svg width="42" height="42" viewBox="0 0 42 42" fill="none" xmlns="http://www.w3.org/2000/svg">
    <path d="M21 42C32.598 42 42 32.598 42 21C42 9.40202 32.598 0 21 0C9.40202 0 0 9.40202 0 21C0 32.598 9.40202 42 21 42Z" fill="#FFCC4D"/>
    <path d="M31.8908 27.567C31.6831 27.3792 31.3728 27.3675 31.1499 27.5332C31.1044 27.567 26.5743 30.9165 20.9999 30.9165C15.4396 30.9165 10.8943 27.567 10.8499 27.5332C10.6271 27.3675 10.3168 27.3815 10.1091 27.567C9.90259 27.7537 9.85593 28.0617 9.99943 28.2997C10.1499 28.5505 13.7526 34.4165 20.9999 34.4165C28.2473 34.4165 31.8511 28.5505 32.0004 28.2997C32.1439 28.0605 32.0984 27.7537 31.8908 27.567Z" fill="#664500"/>
    <path d="M21 31.0228C20.8273 31.0228 20.6605 31.0099 20.489 31.0041V36.2728H21.5098V31.0029C21.3407 31.0088 21.1727 31.0228 21 31.0228Z" fill="#65471B"/>
    <path d="M25.6667 30.333C25.6854 30.3284 23.9751 30.774 22.8131 30.9C22.3861 30.949 21.9532 30.9887 21.5099 31.0039V36.2737H23.3334C24.6167 36.2737 25.6667 35.2237 25.6667 33.9404V30.333ZM16.3334 30.333C16.3147 30.3284 18.0251 30.774 19.1871 30.9C19.6141 30.949 20.0469 30.9887 20.4902 31.0039V36.2737H18.6667C17.3834 36.2737 16.3334 35.2237 16.3334 33.9404V30.333Z" fill="white"/>
    <path d="M31.8908 27.5674C31.6832 27.3796 31.3728 27.3679 31.15 27.5336C31.115 27.5592 28.5145 29.4796 24.8372 30.4152C24.3203 30.5471 22.6625 30.9169 21.0035 30.9181C19.3422 30.9181 17.6797 30.5471 17.1628 30.4152C13.4855 29.4796 10.885 27.5592 10.85 27.5336C10.6283 27.3679 10.3168 27.3796 10.1092 27.5674C9.90151 27.7541 9.85601 28.0609 9.99951 28.3001C10.1127 28.4891 12.1987 31.8782 16.3333 33.5279V31.3941C16.3147 31.3894 18.025 31.8351 19.187 31.9611C19.614 32.0101 20.0468 32.0497 20.4902 32.0649C20.6605 32.0707 20.8273 32.0836 21 32.0836C21.1727 32.0836 21.3395 32.0707 21.511 32.0649C21.9543 32.0497 22.3872 32.0112 22.8142 31.9611C23.9762 31.8351 25.6865 31.3894 25.6678 31.3941V33.5279C29.8025 31.8782 31.8885 28.4891 32.0017 28.3001C32.144 28.0609 32.0985 27.7541 31.8908 27.5674ZM31.0613 16.3616C31.0613 18.3612 29.967 19.9829 28.616 19.9829C27.2662 19.9829 26.1707 18.3612 26.1707 16.3616C26.1707 14.3619 27.265 12.7402 28.616 12.7402C29.967 12.7402 31.0613 14.3619 31.0613 16.3616ZM11.0332 16.3616C11.0332 18.3612 12.1275 19.9829 13.4785 19.9829C14.8283 19.9829 15.9238 18.3612 15.9238 16.3616C15.9238 14.3619 14.8295 12.7402 13.4785 12.7402C12.1275 12.7402 11.0332 14.3619 11.0332 16.3616Z" fill="#65471B"/>
    <path d="M40.6094 11.2316C40.4099 11.0379 39.1313 11.5512 37.8374 10.8921C35.1681 9.53175 28.4224 8.21925 24.0311 11.3307C23.5609 11.6632 21.5963 11.7192 21.0468 11.6959C20.4973 11.7204 18.5326 11.6644 18.0624 11.3307C13.6723 8.21925 6.9266 9.53175 4.25727 10.8921C2.96343 11.5512 1.68477 11.0379 1.48527 11.2316C1.1971 11.5104 1.1971 12.6269 1.48643 12.9069C1.77343 13.1857 3.2096 13.5077 3.49543 14.3442C3.7836 15.1819 3.78593 20.1286 6.07727 21.8389C8.22277 23.4396 13.2278 23.9214 16.3999 22.1166C19.1673 20.5427 19.0704 17.2294 19.5779 15.2554C19.7588 14.5519 20.2686 14.1972 21.0479 14.1972C21.8273 14.1972 22.3371 14.5519 22.5179 15.2554C23.0254 17.2282 22.9274 20.5427 25.6959 22.1166C28.8681 23.9202 33.8731 23.4384 36.0174 21.8389C38.3099 20.1297 38.3123 15.1819 38.5993 14.3442C38.8851 13.5077 40.3213 13.1846 40.6083 12.9069C40.8976 12.6269 40.8988 11.5104 40.6094 11.2316ZM17.0498 15.4899C16.9599 16.7791 16.7301 19.2547 15.1866 20.1332C14.2404 20.6722 13.0073 21.0001 11.7169 21.0001H11.7158C10.2866 21.0001 8.3056 20.5952 7.53093 20.0177C6.5626 19.2956 6.19393 16.3229 6.0551 15.2111C5.96643 14.5029 5.72843 12.7727 6.50777 12.5067C7.74443 12.0856 9.46993 11.7566 11.2351 11.7566C12.0436 11.7566 14.7596 11.8067 16.0826 12.6211C17.2551 13.3409 17.0999 14.7806 17.0498 15.4899ZM36.0408 15.1947C35.9019 16.3077 35.5333 19.2956 34.5649 20.0177C33.7903 20.5952 31.8093 21.0001 30.3801 21.0001H30.3789C29.0874 21.0001 27.8554 20.6722 26.9081 20.1332C25.3646 19.2559 25.1348 16.7954 25.0449 15.5062C24.9959 14.7969 24.8396 13.3467 26.0121 12.6269C27.3363 11.8126 30.0511 11.7566 30.8596 11.7566C32.6248 11.7566 34.3491 12.0797 35.5869 12.5009C36.3663 12.7669 36.1294 14.4866 36.0408 15.1947Z" fill="#292F33"/>
</svg>
